PathFileType	4	(X/Y/Z)	D:\TRACE\spot_10-12-23\spot_body_motion_2_1-platform.trc
DataRate	CameraRate	NumFrames	NumMarkers	Units	OrigDataRate	OrigDataStartFrame	OrigNumFrames
100.00	100.00	      36	5	mm	100.00	876	      7000
Frame#	Time	Left_Front			Right_Front			Left_Aft			Right_Aft			Post			
		X1	Y1	Z1	X2	Y2	Z2	X3	Y3	Z3	X4	Y4	Z4	X5	Y5	Z5	

876	8.750	-743.09729	22.51557	-637.43488	829.45764	27.18657	-630.68878	-659.85718	-5.75587	499.94827	757.41901	-2.94493	586.06830	39.49257	767.72412	-937.80927	
877	8.760	-742.23688	24.09455	-637.05627	830.50708	28.79983	-630.31195	-659.18207	-6.78444	500.25107	758.23370	-4.41155	586.48120	40.19123	770.06183	-935.78333	
878	8.770	-741.46088	25.72344	-636.66382	831.19580	30.55163	-629.85852	-658.30280	-7.90775	500.53873	759.15619	-5.54763	586.63562	41.06110	772.14404	-933.55243	
879	8.780	-740.63849	27.34728	-636.30927	831.89490	31.72006	-629.42059	-657.42047	-9.10330	500.92023	759.92401	-6.61939	587.14185	42.09391	774.26813	-931.47095	
880	8.790	-739.59460	28.53204	-635.80811	832.72113	33.37549	-629.09821	-656.47046	-10.01630	501.35675	760.66968	-7.83499	587.41919	42.90355	776.46942	-929.55701	
881	8.800	-738.95129	30.23342	-635.41669	833.48969	34.89539	-628.78516	-655.64655	-11.07014	501.98923	761.52350	-9.25634	587.77643	43.50752	778.60120	-927.48401	
882	8.810	-738.29810	31.56774	-634.89008	834.38721	36.31959	-628.28717	-655.01221	-12.21325	501.95779	762.16992	-10.43220	587.93451	44.23308	780.70270	-925.23755	
883	8.820	-737.59589	32.97819	-634.60046	834.94568	37.52207	-627.76013	-654.34918	-13.20793	502.50134	762.87823	-11.57672	588.39740	44.89574	782.95868	-923.13953	
884	8.830	-736.83722	34.43211	-634.35120	835.67706	39.25461	-627.44666	-653.68530	-14.01879	502.56299	763.74188	-12.81212	588.71515	45.70020	784.93457	-921.05029	
885	8.840	-736.10791	35.91925	-633.89630	836.60303	40.52992	-626.96338	-652.89178	-15.09968	503.02640	764.46674	-13.87845	589.02319	46.18176	787.03455	-919.15497	
886	8.850	-735.48505	37.11322	-633.24738	837.06787	42.09420	-626.62177	-652.34021	-16.03250	503.14023	765.01184	-15.06958	589.20557	47.06509	789.03381	-916.98322	
887	8.860	-734.93671	38.90047	-633.02222	837.49622	43.44965	-626.37317	-651.77081	-17.10231	503.41006	765.69073	-16.23936	589.61511	47.84688	790.95148	-914.88446	
888	8.870	-734.32318	40.11494	-632.65771	838.23285	44.69025	-625.86908	-651.13715	-17.83343	503.73624	766.36981	-17.54072	589.78448	48.17407	792.99561	-913.13116	
889	8.880	-733.90839	41.43906	-632.18433	838.74054	46.00154	-625.41876	-650.41827	-18.96197	503.95630	766.90100	-18.49771	590.05957	48.96172	794.79443	-911.00336	
890	8.890	-733.38885	42.97787	-631.85968	839.40533	47.48672	-625.10767	-650.08246	-19.82644	504.13910	767.31677	-19.44370	590.29181	49.50742	796.76465	-908.99042	
891	8.900	-732.84869	44.16356	-631.31708	839.79266	48.63684	-624.62262	-649.62952	-20.81647	504.41800	767.89746	-20.72717	590.51385	49.57247	798.46082	-907.32336	
892	8.910	-732.32867	45.35111	-630.99170	840.30298	49.92996	-624.40753	-648.96814	-21.80850	505.12939	768.27997	-21.76846	590.86353	50.19067	800.38806	-905.37360	
893	8.920	-732.01740	46.63680	-630.63898	840.40594	51.26174	-624.01373	-648.66235	-22.36752	505.24649	768.79205	-22.78599	591.08740	50.66291	802.07654	-903.64246	
894	8.930	-731.62262	47.79284	-630.30487	840.91669	52.32927	-623.54755	-648.18030	-23.67006	505.30679	769.05823	-23.80979	591.24652	50.94957	803.70392	-901.94513	
895	8.940	-731.21246	49.07136	-629.94330	841.22003	53.62081	-623.23370	-647.94861	-24.49897	505.69147	769.40820	-24.87599	591.53229	51.27583	805.59247	-900.12823	
896	8.950	-731.22675	50.08813	-629.41663	841.40112	54.79588	-622.82660	-647.71490	-25.12203	505.90070	769.55975	-25.72190	591.66852	51.46051	807.27130	-898.47363	
897	8.960	-730.86035	51.47016	-629.30701	841.97382	55.91822	-622.49640	-647.43872	-25.90105	506.20978	769.93738	-26.75105	591.91907	51.84087	808.76855	-896.80817	
898	8.970	-730.72040	52.52061	-628.94897	842.05267	56.88435	-622.06549	-647.39685	-26.59312	506.23587	769.97998	-27.55718	592.03845	52.03622	810.19574	-895.16913	
899	8.980	-730.52991	53.49430	-628.65112	841.96210	57.96806	-621.95874	-647.24097	-27.50644	506.41672	770.17175	-28.63126	592.29742	52.09314	811.76843	-893.46869	
900	8.990	-730.39020	54.29984	-628.22235	842.33875	59.10781	-621.56866	-647.12231	-28.12326	506.58224	770.39722	-29.45920	592.60425	52.36866	813.20715	-891.99945	
901	9.000	-730.55817	55.64016	-628.08441	842.23096	59.92686	-621.18292	-647.04498	-28.78901	506.82047	770.45532	-30.19733	592.65997	52.21419	814.66095	-890.59058	
902	9.010	-730.42999	56.58900	-627.69116	842.20123	60.83133	-621.01611	-647.11792	-29.52304	506.94916	770.38312	-31.02965	592.84357	52.21034	816.01318	-889.02795	
903	9.020	-730.48865	57.59171	-627.29529	842.18610	62.08228	-620.65289	-647.27490	-30.16033	507.03870	770.40155	-32.00370	592.97766	52.05731	817.18671	-887.86993	
904	9.030	-730.46704	58.23041	-626.97058	842.30737	62.84952	-620.38562	-647.12085	-30.83893	507.27634	770.55969	-32.77343	593.16382	52.12891	818.58899	-886.41211	
905	9.040	-730.33710	59.10004	-626.67645	842.04211	63.72297	-620.11334	-647.02301	-31.58965	507.54822	770.48053	-33.35761	593.24860	52.09966	819.91193	-885.15558	
906	9.050	-730.39032	60.21113	-626.57263	842.14386	64.47491	-619.68298	-647.07068	-32.23120	507.72467	770.32776	-34.22492	593.46063	51.91376	820.95898	-884.06158	
907	9.060	-730.54510	60.76229	-626.28217	842.08875	65.46445	-619.39478	-647.39886	-32.73812	507.76752	770.24609	-35.03085	593.60657	51.87188	822.26624	-882.73364	
908	9.070	-731.02032	61.70581	-625.78827	841.54962	66.26367	-619.19598	-647.70526	-33.19278	507.91550	770.11371	-35.87321	593.60931	51.40477	823.47266	-881.49866	
909	9.080	-731.30713	62.54693	-625.60040	841.15350	67.07795	-618.94366	-647.84363	-33.88065	508.37506	769.58545	-36.66227	593.79205	51.17983	824.52716	-880.38495	
910	9.090	-731.60681	63.30764	-625.25208	840.85571	67.71020	-618.67694	-648.27802	-34.43755	508.15173	769.06769	-37.28051	593.75922	50.83036	825.38287	-879.33331	
911	9.100	-731.93695	64.02271	-625.15228	840.54071	68.15113	-618.53613	-648.50659	-34.99651	508.50525	768.70044	-37.76559	593.80548	50.44297	826.35419	-878.06488	
